<svg xmlns="http://www.w3.org/2000/svg" width="800" height="600" viewBox="0 0 800 600">
  <style>
    .box { fill: #f8fafc; stroke: #475569; stroke-width: 2; rx: 8; }
    .box-accent { fill: #0f766e; opacity: 0.1; stroke: #0f766e; }
    .box-highlight { fill: #f97316; opacity: 0.1; stroke: #f97316; }
    .arrow { fill: none; stroke: #64748b; stroke-width: 2; marker-end: url(#arrowhead); }
    .arrow-highlight { stroke: #f97316; stroke-width: 2.5; }
    .text { font-family: -apple-system, BlinkMacSystemFont, "Segoe UI", Roboto, "Helvetica Neue", Arial, sans-serif; font-size: 16px; fill: #334155; text-anchor: middle; dominant-baseline: middle; }
    .text-small { font-family: -apple-system, BlinkMacSystemFont, "Segoe UI", Roboto, "Helvetica Neue", Arial, sans-serif; font-size: 12px; fill: #64748b; text-anchor: middle; dominant-baseline: middle; }
    .text-bold { font-family: -apple-system, BlinkMacSystemFont, "Segoe UI", Roboto, "Helvetica Neue", Arial, sans-serif; font-size: 16px; font-weight: bold; fill: #334155; text-anchor: middle; dominant-baseline: middle; }
    .title { font-family: -apple-system, BlinkMacSystemFont, "Segoe UI", Roboto, "Helvetica Neue", Arial, sans-serif; font-size: 20px; font-weight: bold; fill: #0f172a; text-anchor: middle; dominant-baseline: middle; }
    .icon { fill: #475569; }
  </style>
  
  <defs>
    <marker id="arrowhead" markerWidth="10" markerHeight="7" refX="9" refY="3.5" orient="auto">
      <polygon points="0 0, 10 3.5, 0 7" fill="#64748b" />
    </marker>
    <marker id="arrowhead-highlight" markerWidth="10" markerHeight="7" refX="9" refY="3.5" orient="auto">
      <polygon points="0 0, 10 3.5, 0 7" fill="#f97316" />
    </marker>
  </defs>
  
  <rect width="800" height="600" fill="#ffffff" />
  
  <!-- Title -->
  <text x="400" y="40" class="title">Hangtime App: Real-time Booking System with WebSockets</text>
  
  <!-- Users Section -->
  <rect x="50" y="100" width="150" height="400" class="box" rx="10" opacity="0.3" />
  <text x="125" y="130" class="text-bold">Users</text>
  
  <!-- User 1 -->
  <rect x="80" y="170" width="90" height="80" class="box" />
  <circle cx="125" cy="195" r="15" fill="#0f766e" />
  <text x="125" y="195" class="text" fill="#ffffff">1</text>
  <text x="125" y="225" class="text-small">User 1</text>
  
  <!-- User 2 -->
  <rect x="80" y="270" width="90" height="80" class="box" />
  <circle cx="125" cy="295" r="15" fill="#f97316" />
  <text x="125" y="295" class="text" fill="#ffffff">2</text>
  <text x="125" y="325" class="text-small">User 2</text>
  
  <!-- User 3 -->
  <rect x="80" y="370" width="90" height="80" class="box" />
  <circle cx="125" cy="395" r="15" fill="#6366f1" />
  <text x="125" y="395" class="text" fill="#ffffff">3</text>
  <text x="125" y="425" class="text-small">User 3</text>
  
  <!-- App Server Section -->
  <rect x="300" y="100" width="200" height="400" class="box" rx="10" />
  <text x="400" y="130" class="text-bold">Hangtime App Server</text>
  
  <!-- API Layer -->
  <rect x="325" y="160" width="150" height="80" class="box" />
  <text x="400" y="200" class="text">REST API</text>
  
  <!-- WebSocket Controller -->
  <rect x="325" y="260" width="150" height="80" class="box-accent" />
  <text x="400" y="285" class="text-bold">WebSocket</text>
  <text x="400" y="305" class="text-small">Real-time Booking</text>
  
  <!-- Booking Manager -->
  <rect x="325" y="360" width="150" height="80" class="box" />
  <text x="400" y="385" class="text-bold">Booking Manager</text>
  <text x="400" y="405" class="text-small">Locking Mechanism</text>
  
  <!-- Database Section -->
  <rect x="600" y="100" width="150" height="400" class="box" rx="10" />
  <text x="675" y="130" class="text-bold">Database</text>
  
  <!-- Tables -->
  <rect x="625" y="170" width="100" height="50" class="box" />
  <text x="675" y="195" class="text-small">Users</text>
  
  <rect x="625" y="240" width="100" height="50" class="box" />
  <text x="675" y="265" class="text-small">Games</text>
  
  <rect x="625" y="310" width="100" height="50" class="box-highlight" />
  <text x="675" y="335" class="text-small">Bookings</text>
  
  <rect x="625" y="380" width="100" height="50" class="box" />
  <text x="675" y="405" class="text-small">Transactions</text>
  
  <!-- Connections -->
  <!-- User 1 to Server -->
  <path d="M170,190 C230,190 230,190 300,190" class="arrow" />
  
  <!-- User 2 to Server -->
  <path d="M170,290 C230,290 230,290 300,290" class="arrow arrow-highlight" marker-end="url(#arrowhead-highlight)" />
  
  <!-- User 3 to Server -->
  <path d="M170,390 C230,390 230,390 300,390" class="arrow" />
  
  <!-- Server to Database -->
  <path d="M475,200 C520,200 520,200 625,200" class="arrow" />
  <path d="M475,300 C550,300 550,335 625,335" class="arrow arrow-highlight" marker-end="url(#arrowhead-highlight)" />
  <path d="M475,400 C550,400 550,400 625,400" class="arrow" />
  
  <!-- Internal Server Connections -->
  <path d="M400,240 L400,260" class="arrow" />
  <path d="M400,340 L400,360" class="arrow" />
  
  <!-- Concurrent Booking Problem -->
  <rect x="180" y="500" width="440" height="70" class="box-highlight" opacity="0.2" rx="10" />
  <text x="400" y="525" class="text-bold" fill="#f97316">Problem: Concurrent Booking Collisions</text>
  <text x="400" y="550" class="text-small">WebSockets ensure real-time slot availability updates to prevent double bookings</text>
  
  <!-- Legend -->
  <rect x="600" y="500" width="150" height="70" class="box" rx="10" opacity="0.2" />
  <circle cx="625" cy="525" r="6" fill="#f97316" />
  <text x="665" y="525" class="text-small" text-anchor="start">Critical Path</text>
  <circle cx="625" cy="550" r="6" fill="#0f766e" />
  <text x="665" y="550" class="text-small" text-anchor="start">WebSocket Solution</text>
</svg>